<svg fill="#00d2b5" xmlns="http://www.w3.org/2000/svg"  viewBox="0 0 16 16" width="25px" height="25px"><path fill="none" stroke="#00d2b5" stroke-miterlimit="10" d="M7.5 1.5A6 6 0 1 0 7.5 13.5A6 6 0 1 0 7.5 1.5Z"/><path d="M13.466 8.134c.001-.009.003-.017.003-.025C13.468 8.117 13.467 8.125 13.466 8.134zM1.531 8.106C1.532 8.118 1.534 8.129 1.535 8.14 1.534 8.129 1.532 8.118 1.531 8.106zM8.312 9.09h1.553l.244-1.577H8.312V6.651c0-.655.214-1.236.827-1.236h.985V4.038C9.951 4.015 9.585 3.963 8.893 3.963c-1.444 0-2.291.763-2.291 2.5v1.049H5.118V9.09h1.485v4.335C6.897 13.47 7.194 13.5 7.5 13.5c.276 0 .546-.025.812-.061V9.09z"/></svg>