<svg fill="#00d2b5" xmlns="http://www.w3.org/2000/svg"  viewBox="0 0 16 16" width="25px" height="25px"><path fill="none" stroke="#00d2b5" stroke-miterlimit="10" d="M4.773,13.5h5.455c1.807,0,3.272-1.465,3.272-3.273V4.772c0-1.807-1.465-3.272-3.273-3.272H4.772C2.965,1.5,1.5,2.965,1.5,4.773v5.455C1.5,12.035,2.965,13.5,4.773,13.5z"/><path fill="none" stroke="#00d2b5" stroke-miterlimit="10" d="M7.5 4.5A3 3 0 1 0 7.5 10.5A3 3 0 1 0 7.5 4.5Z"/><path d="M11.5 3A0.5 0.5 0 1 0 11.5 4A0.5 0.5 0 1 0 11.5 3Z"/></svg>